<mxfile host="app.diagrams.net" agent="Mozilla/5.0 (Windows NT 10.0; Win64; x64) AppleWebKit/537.36 (KHTML, like Gecko) Chrome/135.0.0.0 Safari/537.36" version="26.2.14">
  <diagram id="N8EeXgsE1fwmN3BlpUJH" name="Page-1">
    <mxGraphModel dx="2578" dy="2491" grid="1" gridSize="10" guides="1" tooltips="1" connect="1" arrows="1" fold="1" page="1" pageScale="1" pageWidth="850" pageHeight="1100" math="0" shadow="0">
      <root>
        <mxCell id="0" />
        <mxCell id="1" parent="0" />
        <mxCell id="KEckJg0b3-HEQCbeBnGN-12" value="" style="rounded=0;whiteSpace=wrap;html=1;fillColor=none;strokeColor=#999999;" parent="1" vertex="1">
          <mxGeometry x="670" y="-250" width="360" height="310" as="geometry" />
        </mxCell>
        <mxCell id="gjA5qlOPhJTUBGUHCWqp-4" value="" style="rounded=0;whiteSpace=wrap;html=1;fillColor=none;strokeColor=#999999;" parent="1" vertex="1">
          <mxGeometry x="670" y="400" width="360" height="290" as="geometry" />
        </mxCell>
        <mxCell id="gjA5qlOPhJTUBGUHCWqp-5" value="" style="rounded=0;whiteSpace=wrap;html=1;fillColor=none;strokeColor=#999999;" parent="1" vertex="1">
          <mxGeometry x="670" y="90" width="360" height="220" as="geometry" />
        </mxCell>
        <mxCell id="gjA5qlOPhJTUBGUHCWqp-3" value="" style="rounded=0;whiteSpace=wrap;html=1;fillColor=none;strokeColor=#999999;" parent="1" vertex="1">
          <mxGeometry x="240" y="90" width="390" height="220" as="geometry" />
        </mxCell>
        <mxCell id="gjA5qlOPhJTUBGUHCWqp-1" value="" style="rounded=0;whiteSpace=wrap;html=1;fillColor=none;strokeColor=#999999;" parent="1" vertex="1">
          <mxGeometry x="30" y="90" width="170" height="220" as="geometry" />
        </mxCell>
        <mxCell id="c_rnrx9wKOCtzQBSFdcK-9" style="edgeStyle=orthogonalEdgeStyle;rounded=0;orthogonalLoop=1;jettySize=auto;html=1;entryX=0.5;entryY=0;entryDx=0;entryDy=0;" parent="1" source="c_rnrx9wKOCtzQBSFdcK-1" edge="1">
          <mxGeometry relative="1" as="geometry">
            <mxPoint x="120" y="250" as="targetPoint" />
          </mxGeometry>
        </mxCell>
        <mxCell id="c_rnrx9wKOCtzQBSFdcK-1" value="Clouds" style="shape=hexagon;perimeter=hexagonPerimeter2;whiteSpace=wrap;html=1;fixedSize=1;fillColor=#F19C99;" parent="1" vertex="1">
          <mxGeometry x="60" y="130" width="120" height="80" as="geometry" />
        </mxCell>
        <mxCell id="c_rnrx9wKOCtzQBSFdcK-4" value="Clouds Image" style="rounded=0;whiteSpace=wrap;html=1;" parent="1" vertex="1">
          <mxGeometry x="60" y="250" width="110" height="40" as="geometry" />
        </mxCell>
        <mxCell id="ECKW_O2Cox3npcusyIPa-7" style="edgeStyle=orthogonalEdgeStyle;rounded=0;orthogonalLoop=1;jettySize=auto;html=1;entryX=0;entryY=0.25;entryDx=0;entryDy=0;exitX=0.5;exitY=1;exitDx=0;exitDy=0;" parent="1" source="c_rnrx9wKOCtzQBSFdcK-11" target="ECKW_O2Cox3npcusyIPa-1" edge="1">
          <mxGeometry relative="1" as="geometry">
            <Array as="points">
              <mxPoint x="785" y="520" />
            </Array>
          </mxGeometry>
        </mxCell>
        <mxCell id="c_rnrx9wKOCtzQBSFdcK-11" value="Composition &amp;amp; God rays" style="shape=hexagon;perimeter=hexagonPerimeter2;whiteSpace=wrap;html=1;fixedSize=1;fillColor=#7EA6E0;" parent="1" vertex="1">
          <mxGeometry x="700" y="420" width="170" height="80" as="geometry" />
        </mxCell>
        <mxCell id="c_rnrx9wKOCtzQBSFdcK-24" value="SwapChainImage" style="rounded=0;whiteSpace=wrap;html=1;" parent="1" vertex="1">
          <mxGeometry x="880" y="640" width="120" height="40" as="geometry" />
        </mxCell>
        <mxCell id="c_rnrx9wKOCtzQBSFdcK-29" style="edgeStyle=orthogonalEdgeStyle;rounded=0;orthogonalLoop=1;jettySize=auto;html=1;entryX=0.5;entryY=0;entryDx=0;entryDy=0;" parent="1" source="c_rnrx9wKOCtzQBSFdcK-26" edge="1">
          <mxGeometry relative="1" as="geometry">
            <mxPoint x="740" y="250" as="targetPoint" />
          </mxGeometry>
        </mxCell>
        <mxCell id="c_rnrx9wKOCtzQBSFdcK-26" value="Terrain" style="shape=hexagon;perimeter=hexagonPerimeter2;whiteSpace=wrap;html=1;fixedSize=1;fillColor=#7EA6E0;" parent="1" vertex="1">
          <mxGeometry x="900" y="130" width="120" height="80" as="geometry" />
        </mxCell>
        <mxCell id="c_rnrx9wKOCtzQBSFdcK-28" value="Terrain Image" style="rounded=0;whiteSpace=wrap;html=1;" parent="1" vertex="1">
          <mxGeometry x="680" y="250" width="120" height="40" as="geometry" />
        </mxCell>
        <mxCell id="KEckJg0b3-HEQCbeBnGN-8" style="edgeStyle=orthogonalEdgeStyle;rounded=0;orthogonalLoop=1;jettySize=auto;html=1;entryX=0.5;entryY=0;entryDx=0;entryDy=0;" parent="1" source="c_rnrx9wKOCtzQBSFdcK-41" target="KEckJg0b3-HEQCbeBnGN-1" edge="1">
          <mxGeometry relative="1" as="geometry" />
        </mxCell>
        <mxCell id="c_rnrx9wKOCtzQBSFdcK-41" value="Geometry Buffer" style="rounded=1;whiteSpace=wrap;html=1;" parent="1" vertex="1">
          <mxGeometry x="890" y="-230" width="120" height="60" as="geometry" />
        </mxCell>
        <mxCell id="c_rnrx9wKOCtzQBSFdcK-50" style="edgeStyle=orthogonalEdgeStyle;rounded=0;orthogonalLoop=1;jettySize=auto;html=1;entryX=0.5;entryY=0;entryDx=0;entryDy=0;" parent="1" source="c_rnrx9wKOCtzQBSFdcK-45" edge="1">
          <mxGeometry relative="1" as="geometry">
            <mxPoint x="305" y="250" as="targetPoint" />
          </mxGeometry>
        </mxCell>
        <mxCell id="c_rnrx9wKOCtzQBSFdcK-51" style="edgeStyle=orthogonalEdgeStyle;rounded=0;orthogonalLoop=1;jettySize=auto;html=1;entryX=0.5;entryY=0;entryDx=0;entryDy=0;" parent="1" source="c_rnrx9wKOCtzQBSFdcK-45" edge="1">
          <mxGeometry relative="1" as="geometry">
            <mxPoint x="420" y="250" as="targetPoint" />
            <Array as="points">
              <mxPoint x="421" y="200" />
            </Array>
          </mxGeometry>
        </mxCell>
        <mxCell id="M0AAU01XaQPzReY9K_X3-3" style="edgeStyle=orthogonalEdgeStyle;rounded=0;orthogonalLoop=1;jettySize=auto;html=1;entryX=0.5;entryY=0;entryDx=0;entryDy=0;" edge="1" parent="1" source="c_rnrx9wKOCtzQBSFdcK-45" target="M0AAU01XaQPzReY9K_X3-2">
          <mxGeometry relative="1" as="geometry" />
        </mxCell>
        <mxCell id="M0AAU01XaQPzReY9K_X3-5" style="edgeStyle=orthogonalEdgeStyle;rounded=0;orthogonalLoop=1;jettySize=auto;html=1;exitX=1;exitY=0.25;exitDx=0;exitDy=0;entryX=0;entryY=0.5;entryDx=0;entryDy=0;" edge="1" parent="1" source="c_rnrx9wKOCtzQBSFdcK-45" target="M0AAU01XaQPzReY9K_X3-4">
          <mxGeometry relative="1" as="geometry" />
        </mxCell>
        <mxCell id="c_rnrx9wKOCtzQBSFdcK-45" value="Atmosphere" style="shape=hexagon;perimeter=hexagonPerimeter2;whiteSpace=wrap;html=1;fixedSize=1;shadow=0;fillColor=#F19C99;" parent="1" vertex="1">
          <mxGeometry x="280" y="130" width="120" height="80" as="geometry" />
        </mxCell>
        <mxCell id="M0AAU01XaQPzReY9K_X3-10" style="edgeStyle=orthogonalEdgeStyle;rounded=0;orthogonalLoop=1;jettySize=auto;html=1;entryX=0.375;entryY=0;entryDx=0;entryDy=0;" edge="1" parent="1" source="c_rnrx9wKOCtzQBSFdcK-48" target="c_rnrx9wKOCtzQBSFdcK-11">
          <mxGeometry relative="1" as="geometry">
            <Array as="points">
              <mxPoint x="295" y="360" />
              <mxPoint x="764" y="360" />
            </Array>
          </mxGeometry>
        </mxCell>
        <mxCell id="c_rnrx9wKOCtzQBSFdcK-48" value="SkyView LUT" style="rounded=0;whiteSpace=wrap;html=1;" parent="1" vertex="1">
          <mxGeometry x="250" y="250" width="90" height="40" as="geometry" />
        </mxCell>
        <mxCell id="M0AAU01XaQPzReY9K_X3-9" style="edgeStyle=orthogonalEdgeStyle;rounded=0;orthogonalLoop=1;jettySize=auto;html=1;entryX=0.5;entryY=0;entryDx=0;entryDy=0;" edge="1" parent="1" source="c_rnrx9wKOCtzQBSFdcK-49" target="c_rnrx9wKOCtzQBSFdcK-11">
          <mxGeometry relative="1" as="geometry">
            <Array as="points">
              <mxPoint x="415" y="340" />
              <mxPoint x="785" y="340" />
            </Array>
          </mxGeometry>
        </mxCell>
        <mxCell id="c_rnrx9wKOCtzQBSFdcK-49" value="ArealPerspective LUT" style="rounded=0;whiteSpace=wrap;html=1;" parent="1" vertex="1">
          <mxGeometry x="350" y="250" width="130" height="40" as="geometry" />
        </mxCell>
        <mxCell id="c_rnrx9wKOCtzQBSFdcK-70" value="" style="endArrow=none;dashed=1;html=1;dashPattern=1 3;strokeWidth=2;rounded=0;" parent="1" edge="1">
          <mxGeometry width="50" height="50" relative="1" as="geometry">
            <mxPoint x="640" y="690" as="sourcePoint" />
            <mxPoint x="640" y="-280" as="targetPoint" />
          </mxGeometry>
        </mxCell>
        <mxCell id="KEckJg0b3-HEQCbeBnGN-7" style="edgeStyle=orthogonalEdgeStyle;rounded=0;orthogonalLoop=1;jettySize=auto;html=1;entryX=0.625;entryY=0;entryDx=0;entryDy=0;" parent="1" source="c_rnrx9wKOCtzQBSFdcK-76" target="c_rnrx9wKOCtzQBSFdcK-26" edge="1">
          <mxGeometry relative="1" as="geometry">
            <Array as="points">
              <mxPoint x="890" y="70" />
              <mxPoint x="975" y="70" />
            </Array>
          </mxGeometry>
        </mxCell>
        <mxCell id="KEckJg0b3-HEQCbeBnGN-15" style="edgeStyle=orthogonalEdgeStyle;rounded=0;orthogonalLoop=1;jettySize=auto;html=1;entryX=0.5;entryY=0;entryDx=0;entryDy=0;" parent="1" source="c_rnrx9wKOCtzQBSFdcK-76" target="c_rnrx9wKOCtzQBSFdcK-1" edge="1">
          <mxGeometry relative="1" as="geometry">
            <Array as="points">
              <mxPoint x="870" y="30" />
              <mxPoint x="120" y="30" />
            </Array>
          </mxGeometry>
        </mxCell>
        <mxCell id="c_rnrx9wKOCtzQBSFdcK-76" value="Camera Depth" style="rounded=0;whiteSpace=wrap;html=1;" parent="1" vertex="1">
          <mxGeometry x="810" y="-30" width="120" height="40" as="geometry" />
        </mxCell>
        <mxCell id="ECKW_O2Cox3npcusyIPa-10" style="edgeStyle=orthogonalEdgeStyle;rounded=0;orthogonalLoop=1;jettySize=auto;html=1;entryX=0;entryY=0.5;entryDx=0;entryDy=0;" parent="1" source="c_rnrx9wKOCtzQBSFdcK-79" target="c_rnrx9wKOCtzQBSFdcK-24" edge="1">
          <mxGeometry relative="1" as="geometry">
            <Array as="points">
              <mxPoint x="785" y="660" />
            </Array>
          </mxGeometry>
        </mxCell>
        <mxCell id="c_rnrx9wKOCtzQBSFdcK-79" value="Post Process" style="shape=hexagon;perimeter=hexagonPerimeter2;whiteSpace=wrap;html=1;fixedSize=1;fillColor=#7EA6E0;" parent="1" vertex="1">
          <mxGeometry x="720" y="550" width="130" height="80" as="geometry" />
        </mxCell>
        <mxCell id="gjA5qlOPhJTUBGUHCWqp-18" value="Compute queue" style="text;html=1;align=center;verticalAlign=middle;whiteSpace=wrap;rounded=0;" parent="1" vertex="1">
          <mxGeometry x="510" y="-310" width="120" height="30" as="geometry" />
        </mxCell>
        <mxCell id="gjA5qlOPhJTUBGUHCWqp-19" value="Graphics queue" style="text;html=1;align=center;verticalAlign=middle;whiteSpace=wrap;rounded=0;" parent="1" vertex="1">
          <mxGeometry x="640" y="-310" width="120" height="30" as="geometry" />
        </mxCell>
        <mxCell id="gjA5qlOPhJTUBGUHCWqp-20" style="edgeStyle=orthogonalEdgeStyle;rounded=0;orthogonalLoop=1;jettySize=auto;html=1;exitX=0.5;exitY=1;exitDx=0;exitDy=0;" parent="1" source="gjA5qlOPhJTUBGUHCWqp-5" target="gjA5qlOPhJTUBGUHCWqp-5" edge="1">
          <mxGeometry relative="1" as="geometry" />
        </mxCell>
        <mxCell id="gjA5qlOPhJTUBGUHCWqp-31" value="Command Buffer" style="text;html=1;align=center;verticalAlign=middle;whiteSpace=wrap;rounded=0;" parent="1" vertex="1">
          <mxGeometry x="30" y="90" width="120" height="30" as="geometry" />
        </mxCell>
        <mxCell id="gjA5qlOPhJTUBGUHCWqp-32" value="Command Buffer" style="text;html=1;align=center;verticalAlign=middle;whiteSpace=wrap;rounded=0;" parent="1" vertex="1">
          <mxGeometry x="240" y="90" width="120" height="30" as="geometry" />
        </mxCell>
        <mxCell id="gjA5qlOPhJTUBGUHCWqp-33" value="Command Buffer" style="text;html=1;align=center;verticalAlign=middle;whiteSpace=wrap;rounded=0;" parent="1" vertex="1">
          <mxGeometry x="670" y="90" width="120" height="30" as="geometry" />
        </mxCell>
        <mxCell id="gjA5qlOPhJTUBGUHCWqp-34" value="Command Buffer" style="text;html=1;align=center;verticalAlign=middle;whiteSpace=wrap;rounded=0;" parent="1" vertex="1">
          <mxGeometry x="910" y="400" width="120" height="30" as="geometry" />
        </mxCell>
        <mxCell id="gjA5qlOPhJTUBGUHCWqp-36" value="" style="shape=flexArrow;endArrow=classic;html=1;rounded=0;" parent="1" edge="1">
          <mxGeometry width="50" height="50" relative="1" as="geometry">
            <mxPoint x="1080" y="-280" as="sourcePoint" />
            <mxPoint x="1080" y="690" as="targetPoint" />
          </mxGeometry>
        </mxCell>
        <mxCell id="gjA5qlOPhJTUBGUHCWqp-37" value="Time" style="text;html=1;align=center;verticalAlign=middle;whiteSpace=wrap;rounded=0;" parent="1" vertex="1">
          <mxGeometry x="1060" y="-310" width="40" height="30" as="geometry" />
        </mxCell>
        <mxCell id="ECKW_O2Cox3npcusyIPa-9" style="edgeStyle=orthogonalEdgeStyle;rounded=0;orthogonalLoop=1;jettySize=auto;html=1;entryX=0.5;entryY=0;entryDx=0;entryDy=0;" parent="1" source="ECKW_O2Cox3npcusyIPa-1" target="c_rnrx9wKOCtzQBSFdcK-79" edge="1">
          <mxGeometry relative="1" as="geometry" />
        </mxCell>
        <mxCell id="ECKW_O2Cox3npcusyIPa-1" value="CompositedImage" style="rounded=0;whiteSpace=wrap;html=1;" parent="1" vertex="1">
          <mxGeometry x="880" y="510" width="120" height="40" as="geometry" />
        </mxCell>
        <mxCell id="ECKW_O2Cox3npcusyIPa-11" value="" style="endArrow=none;dashed=1;html=1;rounded=0;strokeColor=#4D9900;" parent="1" edge="1">
          <mxGeometry width="50" height="50" relative="1" as="geometry">
            <mxPoint x="10" y="70" as="sourcePoint" />
            <mxPoint x="1070" y="70" as="targetPoint" />
          </mxGeometry>
        </mxCell>
        <mxCell id="KEckJg0b3-HEQCbeBnGN-5" style="edgeStyle=orthogonalEdgeStyle;rounded=0;orthogonalLoop=1;jettySize=auto;html=1;entryX=0.5;entryY=0;entryDx=0;entryDy=0;" parent="1" source="KEckJg0b3-HEQCbeBnGN-1" target="KEckJg0b3-HEQCbeBnGN-4" edge="1">
          <mxGeometry relative="1" as="geometry" />
        </mxCell>
        <mxCell id="KEckJg0b3-HEQCbeBnGN-6" style="edgeStyle=orthogonalEdgeStyle;rounded=0;orthogonalLoop=1;jettySize=auto;html=1;" parent="1" source="KEckJg0b3-HEQCbeBnGN-1" target="c_rnrx9wKOCtzQBSFdcK-76" edge="1">
          <mxGeometry relative="1" as="geometry" />
        </mxCell>
        <mxCell id="KEckJg0b3-HEQCbeBnGN-1" value="Depth Only" style="shape=hexagon;perimeter=hexagonPerimeter2;whiteSpace=wrap;html=1;fixedSize=1;fillColor=#7EA6E0;" parent="1" vertex="1">
          <mxGeometry x="725" y="-150" width="120" height="80" as="geometry" />
        </mxCell>
        <mxCell id="M0AAU01XaQPzReY9K_X3-12" style="edgeStyle=orthogonalEdgeStyle;rounded=0;orthogonalLoop=1;jettySize=auto;html=1;entryX=0.625;entryY=0;entryDx=0;entryDy=0;" edge="1" parent="1" source="KEckJg0b3-HEQCbeBnGN-4" target="c_rnrx9wKOCtzQBSFdcK-45">
          <mxGeometry relative="1" as="geometry" />
        </mxCell>
        <mxCell id="KEckJg0b3-HEQCbeBnGN-4" value="Sun depth" style="rounded=0;whiteSpace=wrap;html=1;" parent="1" vertex="1">
          <mxGeometry x="680" y="-30" width="120" height="40" as="geometry" />
        </mxCell>
        <mxCell id="KEckJg0b3-HEQCbeBnGN-9" style="edgeStyle=orthogonalEdgeStyle;rounded=0;orthogonalLoop=1;jettySize=auto;html=1;entryX=0.423;entryY=0.019;entryDx=0;entryDy=0;entryPerimeter=0;" parent="1" source="c_rnrx9wKOCtzQBSFdcK-41" target="c_rnrx9wKOCtzQBSFdcK-26" edge="1">
          <mxGeometry relative="1" as="geometry" />
        </mxCell>
        <mxCell id="KEckJg0b3-HEQCbeBnGN-13" value="Command Buffer" style="text;html=1;align=center;verticalAlign=middle;whiteSpace=wrap;rounded=0;" parent="1" vertex="1">
          <mxGeometry x="670" y="-250" width="120" height="30" as="geometry" />
        </mxCell>
        <mxCell id="KEckJg0b3-HEQCbeBnGN-14" value="" style="endArrow=none;dashed=1;html=1;rounded=0;strokeColor=#4D9900;" parent="1" edge="1">
          <mxGeometry width="50" height="50" relative="1" as="geometry">
            <mxPoint x="10" y="380" as="sourcePoint" />
            <mxPoint x="1070" y="380" as="targetPoint" />
          </mxGeometry>
        </mxCell>
        <mxCell id="M0AAU01XaQPzReY9K_X3-8" style="edgeStyle=orthogonalEdgeStyle;rounded=0;orthogonalLoop=1;jettySize=auto;html=1;entryX=0.625;entryY=0;entryDx=0;entryDy=0;" edge="1" parent="1" source="M0AAU01XaQPzReY9K_X3-2" target="c_rnrx9wKOCtzQBSFdcK-11">
          <mxGeometry relative="1" as="geometry">
            <Array as="points">
              <mxPoint x="555" y="320" />
              <mxPoint x="806" y="320" />
            </Array>
          </mxGeometry>
        </mxCell>
        <mxCell id="M0AAU01XaQPzReY9K_X3-2" value="Trans. LUT" style="rounded=0;whiteSpace=wrap;html=1;" vertex="1" parent="1">
          <mxGeometry x="490" y="250" width="130" height="40" as="geometry" />
        </mxCell>
        <mxCell id="M0AAU01XaQPzReY9K_X3-4" value="Mult. scatt. LUT" style="rounded=0;whiteSpace=wrap;html=1;" vertex="1" parent="1">
          <mxGeometry x="490" y="110" width="130" height="40" as="geometry" />
        </mxCell>
        <mxCell id="M0AAU01XaQPzReY9K_X3-6" style="edgeStyle=orthogonalEdgeStyle;rounded=0;orthogonalLoop=1;jettySize=auto;html=1;entryX=0.845;entryY=0.015;entryDx=0;entryDy=0;entryPerimeter=0;" edge="1" parent="1" source="KEckJg0b3-HEQCbeBnGN-4" target="c_rnrx9wKOCtzQBSFdcK-11">
          <mxGeometry relative="1" as="geometry">
            <Array as="points">
              <mxPoint x="780" y="215" />
              <mxPoint x="844" y="215" />
            </Array>
          </mxGeometry>
        </mxCell>
        <mxCell id="M0AAU01XaQPzReY9K_X3-7" style="edgeStyle=orthogonalEdgeStyle;rounded=0;orthogonalLoop=1;jettySize=auto;html=1;entryX=0.765;entryY=-0.005;entryDx=0;entryDy=0;entryPerimeter=0;" edge="1" parent="1" source="c_rnrx9wKOCtzQBSFdcK-28" target="c_rnrx9wKOCtzQBSFdcK-11">
          <mxGeometry relative="1" as="geometry" />
        </mxCell>
        <mxCell id="M0AAU01XaQPzReY9K_X3-11" style="edgeStyle=orthogonalEdgeStyle;rounded=0;orthogonalLoop=1;jettySize=auto;html=1;entryX=0.252;entryY=0.025;entryDx=0;entryDy=0;entryPerimeter=0;" edge="1" parent="1" source="c_rnrx9wKOCtzQBSFdcK-4" target="c_rnrx9wKOCtzQBSFdcK-11">
          <mxGeometry relative="1" as="geometry">
            <Array as="points">
              <mxPoint x="115" y="370" />
              <mxPoint x="743" y="370" />
            </Array>
          </mxGeometry>
        </mxCell>
      </root>
    </mxGraphModel>
  </diagram>
</mxfile>
